# xmcd CD database file
#
# Track frame offsets:
#	150
#	16870
#	33045
#	47062
#	67485
#	83862
#	100235
#	113602
#	132855
#	144742
#	159332
#	176495
#	190622
#
# Disc length: 2675 seconds
#
# Revision: 2
# Processed by: cddbd v1.5.2PL0 Copyright (c) Steve Scherf et al.
# Submitted via: CDex 1.51
#
DISCID=a50a710d
DTITLE=Roberta Miranda - Tudo Isto É Fado
DYEAR=1900
DGENRE=Fado
TTITLE0=Poema: O fado Da Ilusão - Estranha Forma de Vida
TTITLE1=Só Nós Dois
TTITLE2=Ai Mouraria
TTITLE3=Maldição
TTITLE4=Nem Às Paredes Confesso
TTITLE5=Amor Dos Meus Amores
TTITLE6=Valeu a Pena
TTITLE7=Gaivota
TTITLE8=Perseguição
TTITLE9=Foi Deus
TTITLE10=Lágrima
TTITLE11=Tudo Isto É Fado
TTITLE12=Lisboa Antiga
EXTD=
EXTT0=
EXTT1=
EXTT2=
EXTT3=
EXTT4=
EXTT5=
EXTT6=
EXTT7=
EXTT8=
EXTT9=
EXTT10=
EXTT11=
EXTT12=
PLAYORDER=
